<svg width="8" height="12" viewBox="0 0 8 12" fill="none" xmlns="http://www.w3.org/2000/svg">
<g clip-path="url(#clip0_10_49)">
<path d="M0.000415321 9.99981C0.000415299 9.50863 0.000415278 9.01745 0.000415256 8.52971C0.00041524 8.16378 0.161516 8.00071 0.523991 7.99972C1.51089 7.99972 2.49747 7.99972 3.48372 7.99972C3.8344 7.99972 3.99796 8.16574 3.99894 8.51841C3.99894 9.50502 3.99894 10.4916 3.99894 11.4783C3.99894 11.8319 3.83489 11.9969 3.4847 11.9979C2.49157 11.9999 1.49845 11.9999 0.505328 11.9979C0.166428 11.9979 0.00238004 11.8304 0.000415386 11.4896C-0.00154927 10.993 0.000415342 10.4964 0.000415321 9.99981Z" fill="#74BF03"/>
<path d="M3.99999 2.01826C3.99999 2.50207 3.99999 2.98539 3.99999 3.46871C3.99999 3.8366 3.84036 3.99869 3.47789 3.99918C2.49164 4.00115 1.50507 4.00115 0.518164 3.99918C0.165512 3.99918 0.00244715 3.83611 0.00146482 3.48394C0.00146478 2.49765 0.00146473 1.51104 0.00146469 0.524095C0.00146468 0.163569 0.166494 0.0014801 0.532408 0.000988699C1.51276 0.000988656 2.49279 0.000988613 3.47249 0.00098857C3.83594 0.000988554 3.99852 0.166025 3.99999 0.528515C4.00146 1.0251 3.99999 1.52168 3.99999 2.01826Z" fill="#74BF03"/>
<path d="M5.98773 7.99934C5.49657 7.99934 5.00541 7.99934 4.51769 7.99934C4.16454 7.99934 4.00099 7.83627 4.0005 7.48458C3.99853 6.49797 3.99853 5.51119 4.0005 4.52425C4.0005 4.16225 4.16405 4.00163 4.52997 4.00114C5.51032 3.99918 6.49051 3.99918 7.47054 4.00114C7.83399 4.00114 7.99804 4.1647 7.99853 4.52719C8.0005 5.50693 8.0005 6.487 7.99853 7.46739C7.99853 7.84216 7.83743 7.99885 7.45826 7.99983C6.96759 8.00032 6.4779 7.99934 5.98773 7.99934Z" fill="#74BF03"/>
</g>
<defs>
<clipPath id="clip0_10_49">
<rect width="12" height="8" fill="white" transform="translate(0 12) rotate(-90)"/>
</clipPath>
</defs>
</svg>
